<?xml version="1.0" standalone="no"?>
<!DOCTYPE svg PUBLIC "-//W3C//DTD SVG 20010904//EN"
 "http://www.w3.org/TR/2001/REC-SVG-20010904/DTD/svg10.dtd">
<svg version="1.0" xmlns="http://www.w3.org/2000/svg"
 width="1024.000000pt" height="353.000000pt" viewBox="0 0 1024.000000 353.000000"
 preserveAspectRatio="xMidYMid meet">

<g transform="translate(0.000000,353.000000) scale(0.100000,-0.100000)"
fill="#000000" stroke="none">
<path d="M6360 1570 c-294 -62 -393 -97 -502 -182 -93 -73 -135 -137 -177
-271 -45 -148 -54 -520 -16 -687 51 -224 180 -365 374 -410 78 -18 259 -8 335
19 155 55 251 159 302 326 25 82 25 302 0 395 -39 144 -130 257 -244 301 -79
31 -218 37 -298 14 -85 -24 -168 -71 -214 -121 -22 -24 -43 -44 -45 -44 -18 0
8 146 35 200 26 50 102 117 167 147 33 15 145 44 277 70 121 25 224 48 228 52
5 4 -2 55 -13 114 -26 127 -7 120 -209 77z m-70 -734 c64 -42 100 -146 100
-286 0 -142 -36 -244 -101 -287 -78 -51 -199 -40 -263 24 -110 110 -95 418 27
531 60 56 167 64 237 18z"/>
<path d="M255 1530 c-38 -5 -105 -16 -148 -26 -61 -14 -76 -21 -73 -33 3 -9
12 -54 21 -101 9 -47 18 -90 20 -96 3 -9 20 -8 67 1 176 38 359 25 453 -30 91
-53 155 -156 171 -275 l7 -53 -252 5 -251 4 0 -118 0 -118 250 0 250 0 0 -37
c0 -56 -26 -156 -55 -213 -86 -169 -277 -224 -579 -166 -44 9 -81 14 -83 12
-3 -3 -43 -210 -43 -222 0 -5 96 -25 188 -39 310 -46 547 9 701 164 116 116
182 283 200 511 29 351 -61 600 -263 732 -132 85 -355 123 -581 98z"/>
<path d="M2626 1095 c-181 -46 -299 -176 -340 -377 -31 -151 -14 -359 38 -474
53 -114 165 -197 304 -225 135 -26 422 4 520 55 l29 15 -30 104 -30 104 -86
-24 c-120 -34 -269 -37 -326 -6 -51 27 -69 47 -97 108 -20 44 -23 66 -23 180
0 115 3 136 24 182 27 62 83 115 136 133 38 12 239 9 296 -5 26 -7 27 -5 49
84 31 128 33 122 -25 138 -75 22 -364 27 -439 8z"/>
<path d="M4818 1094 c-178 -43 -304 -169 -354 -354 -23 -87 -24 -279 0 -374
57 -236 226 -355 502 -356 277 0 448 116 520 355 23 75 26 292 5 375 -47 190
-168 311 -353 355 -78 18 -243 18 -320 -1z m272 -238 c75 -49 116 -182 107
-341 -11 -191 -86 -285 -224 -285 -149 1 -218 107 -217 330 1 127 22 202 72
262 61 72 181 88 262 34z"/>
<path d="M7163 1099 c-67 -10 -253 -56 -261 -64 -3 -3 8 -49 25 -102 34 -112
24 -108 153 -72 117 32 285 34 326 3 50 -37 65 -66 67 -129 l2 -60 -180 -6
c-206 -7 -276 -24 -361 -88 -130 -97 -170 -275 -96 -421 56 -110 157 -156 326
-148 113 6 185 28 275 85 29 19 54 33 55 31 44 -98 76 -118 181 -118 72 0 219
30 237 48 7 7 8 41 3 96 l-7 86 -68 0 -69 0 -3 308 c-5 357 -7 371 -92 458
-77 78 -135 97 -311 100 -77 1 -168 -2 -202 -7z m317 -698 l0 -99 -47 -30
c-158 -100 -309 -74 -320 55 -5 60 20 110 68 135 30 16 146 32 267 37 l32 1 0
-99z"/>
<path d="M1260 560 l0 -530 150 0 150 0 0 236 c0 219 1 235 18 232 9 -2 86
-105 173 -233 l156 -230 176 -3 c98 -1 177 0 177 4 0 4 -82 124 -182 268 -99
143 -190 273 -200 289 l-19 27 172 218 c95 119 179 225 187 235 14 16 6 17
-149 17 l-164 -1 -154 -225 c-108 -160 -158 -224 -170 -222 -14 3 -16 29 -19
226 l-2 222 -150 0 -150 0 0 -530z"/>
<path d="M3320 560 l0 -530 145 0 145 0 0 420 0 420 195 0 195 0 0 -420 0
-420 150 0 150 0 0 530 0 530 -490 0 -490 0 0 -530z"/>
<path d="M8040 560 l0 -530 150 0 150 0 2 222 3 223 190 0 190 0 3 -223 2
-222 150 0 150 0 0 530 0 530 -150 0 -150 0 0 -195 0 -195 -195 0 -195 0 0
195 0 195 -150 0 -150 0 0 -530z"/>
<path d="M9230 560 l0 -530 150 0 150 0 0 235 c0 194 2 235 14 235 8 0 85
-106 172 -235 l158 -235 179 0 c140 0 177 3 171 12 -4 7 -95 138 -202 292
-106 153 -191 284 -188 292 3 7 84 112 181 234 96 121 175 222 175 225 0 3
-72 5 -159 5 l-159 0 -128 -187 c-155 -228 -182 -263 -200 -263 -12 0 -14 38
-14 225 l0 225 -150 0 -150 0 0 -530z"/>
</g>
</svg>
